HIERARCHY
ROOT Pelvis
{
	OFFSET 0.000000 0.000000 0.000000
	CHANNELS 6 Xposition Yposition Zposition Xrotation Yrotation Zrotation
	JOINT LeftUpLeg_virtual
	{
		OFFSET 0.000000 0.000000 0.000000
		CHANNELS 3 Xrotation Yrotation Zrotation
		JOINT LeftUpLeg
		{
			OFFSET 18.735201 -5.666702 -4.541200
			CHANNELS 3 Xrotation Yrotation Zrotation
			JOINT LeftLeg
			{
				OFFSET -0.021200 -31.938179 0.493100
				CHANNELS 3 Xrotation Yrotation Zrotation
				JOINT LeftFoot
				{
					OFFSET 0.021200 -31.938179 -4.336299
					CHANNELS 3 Xrotation Yrotation Zrotation
					JOINT LeftToeBase
					{
						OFFSET 0.943001 -26.722000 15.023500
						CHANNELS 3 Xrotation Yrotation Zrotation
						End Site
						{
							OFFSET 0 0 0
						}
					}
				}
			}
		}
	}
	JOINT RightUpLeg_virtual
	{
		OFFSET 0.000000 0.000000 0.000000
		CHANNELS 3 Xrotation Yrotation Zrotation
		JOINT RightUpLeg
		{
			OFFSET -18.735201 -5.666702 -4.541200
			CHANNELS 3 Xrotation Yrotation Zrotation
			JOINT RightLeg
			{
				OFFSET 0.018946 -31.938133 0.493100
				CHANNELS 3 Xrotation Yrotation Zrotation
				JOINT RightFoot
				{
					OFFSET -0.018946 -31.938126 -4.336299
					CHANNELS 3 Xrotation Yrotation Zrotation
					JOINT RightToeBase
					{
						OFFSET -0.943001 -26.722004 15.023500
						CHANNELS 3 Xrotation Yrotation Zrotation
						End Site
						{
							OFFSET 0 0 0
						}
					}
				}
			}
		}
	}
	JOINT Hips_virtual
	{
		OFFSET 0.000000 0.000000 0.000000
		CHANNELS 3 Xrotation Yrotation Zrotation
		JOINT Hips
		{
			OFFSET -0.000000 -0.000000 -0.000000
			CHANNELS 3 Xrotation Yrotation Zrotation
			JOINT Spine
			{
				OFFSET 0.000000 10.199997 -0.299500
				CHANNELS 3 Xrotation Yrotation Zrotation
				JOINT Spine1
				{
					OFFSET 0.000000 11.900002 -1.516600
					CHANNELS 3 Xrotation Yrotation Zrotation
					JOINT Spine2
					{
						OFFSET 0.000000 13.600006 -2.842500
						CHANNELS 3 Xrotation Yrotation Zrotation
						JOINT Neck_virtual
						{
							OFFSET 0.000000 0.000000 0.000000
							CHANNELS 3 Xrotation Yrotation Zrotation
							JOINT Neck
							{
								OFFSET 0.000000 9.624100 -2.890100
								CHANNELS 3 Xrotation Yrotation Zrotation
								JOINT Head
								{
									OFFSET 0.000000 14.068802 -1.351900
									CHANNELS 3 Xrotation Yrotation Zrotation
									End Site
									{
										OFFSET 0 0 0
									}
								}
							}
						}
						JOINT LeftShoulder_virtual
						{
							OFFSET 0.000000 0.000000 0.000000
							CHANNELS 3 Xrotation Yrotation Zrotation
							JOINT LeftShoulder
							{
								OFFSET 15.263000 10.923401 -0.547700
								CHANNELS 3 Xrotation Yrotation Zrotation
								JOINT LeftArm
								{
									OFFSET 25.438599 -2.830597 -13.032500
									CHANNELS 3 Xrotation Yrotation Zrotation
									JOINT LeftForeArm
									{
										OFFSET 29.960503 0.000000 0.000000
										CHANNELS 3 Xrotation Yrotation Zrotation
										JOINT LeftHand
										{
											OFFSET 27.849251 0.000000 0.000000
											CHANNELS 3 Xrotation Yrotation Zrotation
											End Site
											{
												OFFSET 0 0 0
											}
										}
									}
								}
							}
						}
						JOINT RightShoulder_virtual
						{
							OFFSET 0.000000 0.000000 0.000000
							CHANNELS 3 Xrotation Yrotation Zrotation
							JOINT RightShoulder
							{
								OFFSET -15.263000 10.923401 -0.547700
								CHANNELS 3 Xrotation Yrotation Zrotation
								JOINT RightArm
								{
									OFFSET -25.438599 -2.830597 -13.032500
									CHANNELS 3 Xrotation Yrotation Zrotation
									JOINT RightForeArm
									{
										OFFSET -29.960503 0.000000 0.000000
										CHANNELS 3 Xrotation Yrotation Zrotation
										JOINT RightHand
										{
											OFFSET -27.849251 0.000000 0.000000
											CHANNELS 3 Xrotation Yrotation Zrotation
											End Site
											{
												OFFSET 0 0 0
											}
										}
									}
								}
							}
						}
					}
				}
			}
		}
	}
}
MOTION
Frames: 13
Frame Time: 0.03333333
12.963732 57.889381 -37.720673 0.000000 0.000000 0.000000 49.508660 -32.172363 17.019611 -78.374679 -5.425198 -0.263729 103.555155 -4.011459 0.541201 21.251333 -7.684892 -11.169110 0.000000 0.000000 0.000000 49.508660 -32.172363 17.019611 -106.271740 -8.455127 -19.817043 114.256887 -9.978235 6.044719 -33.276159 -10.524580 6.837743 0.000000 0.000000 0.000000 49.508660 -32.172363 17.019611 0.000000 0.000000 0.000000 30.636814 10.822030 2.503606 6.860041 2.066868 1.129950 0.000000 0.000000 0.000000 6.835852 2.135326 1.146306 -3.189859 -1.671020 0.619272 0.000000 0.000000 0.000000 6.835852 2.135326 1.146306 5.673067 -23.734083 -9.066826 -27.862333 -10.438775 -41.186461 -0.000002 -38.893454 -0.000002 0.000000 0.000000 0.000000 6.835852 2.135326 1.146306 -0.454830 29.350989 14.140368 -42.011920 48.862729 12.344910 -0.000003 14.620230 -0.000018 0.000000 0.000000 0.000000 
12.998587 58.092026 -37.477409 0.000000 0.000000 0.000000 49.091138 -32.723423 17.046431 -80.107717 -6.026944 0.295482 104.491970 -3.816121 0.152370 22.678666 -7.280076 -10.738715 0.000000 0.000000 0.000000 49.091138 -32.723423 17.046431 -105.249711 -8.272139 -19.680485 113.811353 -9.701409 6.056992 -33.246472 -10.540672 7.163957 0.000000 0.000000 0.000000 49.091138 -32.723423 17.046431 0.000001 -0.000002 0.000002 30.680930 10.774989 2.205399 6.860458 2.055447 1.057262 0.000000 0.000000 0.000000 6.836466 2.123751 1.073446 -3.110320 -1.598680 0.533141 0.000000 0.000000 0.000000 6.836466 2.123751 1.073446 5.677190 -23.780714 -9.018292 -27.386357 -9.567775 -41.312348 -0.000010 -39.455202 -0.000009 0.000000 0.000000 0.000000 6.836466 2.123751 1.073446 -0.367073 28.852358 13.849374 -40.871596 48.371516 12.524540 0.000001 16.563844 0.000008 0.000000 0.000000 0.000000 
13.033815 58.289818 -37.168030 0.000000 0.000000 0.000000 48.624356 -33.276764 17.076883 -81.728083 -6.665580 0.655423 105.308806 -3.985937 0.044300 24.028467 -6.635244 -11.012572 0.000000 0.000000 0.000000 48.624356 -33.276764 17.076883 -104.117081 -7.999329 -19.600821 113.390648 -9.370283 6.069949 -33.292555 -10.559624 7.557322 0.000000 0.000000 0.000000 48.624356 -33.276764 17.076883 -0.000001 0.000003 -0.000002 30.789653 10.752016 1.863041 6.900521 2.048715 0.955042 0.000000 0.000000 0.000000 6.876935 2.117279 0.970890 -3.034438 -1.518666 0.434628 0.000000 0.000000 0.000000 6.876935 2.117279 0.970890 5.697506 -23.899185 -8.949573 -27.065939 -8.692573 -41.259848 -0.000006 -40.071593 -0.000012 0.000000 0.000000 0.000000 6.876935 2.117279 0.970890 -0.244509 28.311474 13.397238 -39.815901 48.075246 12.700978 -0.000001 18.268902 0.000008 0.000000 0.000000 0.000000 
13.055468 58.525909 -36.794563 0.000000 0.000000 0.000000 48.069649 -33.845739 17.131392 -83.131605 -7.334442 0.859331 105.953938 -4.270324 0.101864 25.146678 -6.316973 -11.737744 0.000000 0.000000 0.000000 48.069649 -33.845739 17.131392 -102.829024 -7.672071 -19.491808 112.937636 -9.037038 6.051400 -33.426396 -10.629106 7.945749 0.000000 0.000000 0.000000 48.069649 -33.845739 17.131392 -0.000003 0.000000 0.000000 30.996402 10.732816 1.440935 6.923768 2.044796 0.861490 0.000000 0.000000 0.000000 6.900690 2.113032 0.877177 -2.952230 -1.429560 0.319618 0.000000 0.000000 0.000000 6.900690 2.113032 0.877177 5.758447 -24.143190 -8.911096 -26.806438 -7.789651 -40.855569 -0.000003 -40.789726 -0.000002 0.000000 0.000000 0.000000 6.900690 2.113032 0.877177 -0.090568 27.840275 12.771130 -38.951613 47.768755 12.863073 -0.000001 19.980767 0.000000 0.000000 0.000000 0.000000 
13.057072 58.818108 -36.360100 0.000000 0.000000 0.000000 47.474896 -34.425578 17.207231 -84.491277 -8.013537 0.756876 106.565479 -4.843015 0.470566 25.958790 -5.970611 -13.016634 0.000000 0.000000 0.000000 47.474896 -34.425578 17.207231 -101.379350 -7.306832 -19.318236 112.385319 -8.640704 6.011944 -33.615835 -10.821815 8.319935 0.000000 0.000000 0.000000 47.474896 -34.425578 17.207231 -0.000002 0.000000 0.000000 31.255629 10.714473 0.952067 6.973906 2.045115 0.742948 0.000000 0.000000 0.000000 6.951638 2.112849 0.758487 -2.860256 -1.333395 0.196567 0.000000 0.000000 0.000000 6.951638 2.112849 0.758487 5.880274 -24.606299 -8.861682 -26.458066 -6.906709 -40.061566 -0.000017 -41.627431 -0.000006 0.000000 0.000000 0.000000 6.951638 2.112849 0.758487 0.069426 27.515620 12.075459 -38.169132 47.324564 12.915027 -0.000006 21.820976 0.000012 0.000000 0.000000 0.000000 
13.019093 59.200356 -35.862045 0.000000 0.000000 0.000000 46.885277 -34.990642 17.293233 -85.977492 -8.697752 0.562812 107.256899 -5.495892 0.970974 26.456137 -5.489626 -14.307370 0.000000 0.000000 0.000000 46.885277 -34.990642 17.293233 -99.719041 -6.953023 -19.075211 111.644817 -8.149469 5.976369 -33.868302 -11.162496 8.659290 0.000000 0.000000 0.000000 46.885277 -34.990642 17.293233 -0.000003 0.000001 0.000001 31.524673 10.693028 0.430291 7.024829 2.051994 0.621950 0.000000 0.000000 0.000000 7.003243 2.119293 0.637309 -2.763826 -1.232710 0.071801 0.000000 0.000000 0.000000 7.003243 2.119293 0.637309 6.045114 -25.214676 -8.800710 -26.016354 -6.058585 -38.964173 -0.000007 -42.536383 -0.000011 0.000000 0.000000 0.000000 7.003243 2.119293 0.637309 0.224722 27.343971 11.370306 -37.477648 46.790443 12.871064 0.000005 23.721768 -0.000008 0.000000 0.000000 0.000000 
12.921593 59.696892 -35.306190 0.000000 0.000000 0.000000 46.381871 -35.475859 17.376804 -87.843869 -9.448661 0.633239 108.101684 -5.954849 1.341804 26.744417 -4.925986 -14.829326 0.000000 0.000000 0.000000 46.381871 -35.475859 17.376804 -97.854256 -6.709725 -18.747636 110.659610 -7.669053 5.977538 -34.231788 -11.589464 8.903337 0.000000 0.000000 0.000000 46.381871 -35.475859 17.376804 0.000002 -0.000002 0.000002 31.730798 10.647746 -0.066387 7.073825 2.060564 0.500875 0.000000 0.000000 0.000000 7.052996 2.127535 0.515826 -2.678358 -1.129804 -0.040479 0.000000 0.000000 0.000000 7.052996 2.127535 0.515826 6.184836 -25.737514 -8.719599 -25.567732 -5.399178 -37.802905 0.000001 -43.339285 0.000006 0.000000 0.000000 0.000000 7.052996 2.127535 0.515826 0.371333 27.275252 10.690511 -37.139147 46.241938 12.993751 -0.000006 25.612274 0.000020 0.000000 0.000000 0.000000 
12.801003 60.241066 -34.705299 0.000000 0.000000 0.000000 46.025329 -35.817474 17.451388 -90.016122 -10.390729 1.135209 108.903917 -6.198790 1.534016 27.111213 -4.332016 -14.689481 0.000000 0.000000 0.000000 46.025329 -35.817474 17.451388 -95.958502 -6.548713 -18.406760 109.531625 -7.179891 6.039030 -34.706609 -12.080627 8.988852 0.000000 0.000000 0.000000 46.025329 -35.817474 17.451388 -0.000001 0.000001 0.000001 31.819710 10.573019 -0.480499 7.071243 2.064656 0.419906 0.000000 0.000000 0.000000 7.050815 2.131156 0.434490 -2.612545 -1.027838 -0.130635 0.000000 0.000000 0.000000 7.050815 2.131156 0.434490 6.264714 -26.067547 -8.619210 -25.257030 -4.968944 -36.750926 0.000034 -43.810749 0.000017 0.000000 0.000000 0.000000 7.050815 2.131156 0.434490 0.513525 27.217541 10.027215 -36.990238 45.765348 13.211038 0.000010 27.456788 -0.000035 0.000000 0.000000 0.000000 
12.713634 60.764336 -34.042816 0.000000 0.000000 0.000000 45.741842 -35.990674 17.484849 -92.098496 -11.646675 2.018907 109.397712 -6.295831 1.630457 27.694050 -3.778675 -14.552609 0.000000 0.000000 0.000000 45.741842 -35.990674 17.484849 -94.087796 -6.349053 -18.192825 108.383709 -6.619688 6.134543 -35.253284 -12.638744 9.038886 0.000000 0.000000 0.000000 45.741842 -35.990674 17.484849 0.000000 0.000000 -0.000002 31.840812 10.474296 -0.784453 7.064875 2.055942 0.350508 0.000000 0.000000 0.000000 7.044996 2.121779 0.364709 -2.560029 -0.931849 -0.200509 0.000000 0.000000 0.000000 7.044996 2.121779 0.364709 6.320867 -26.347269 -8.474964 -25.121709 -4.615672 -35.775390 -0.000015 -44.098884 -0.000007 0.000000 0.000000 0.000000 7.044996 2.121779 0.364709 0.673115 27.111014 9.277725 -37.002003 45.385586 13.518105 -0.000003 29.168412 0.000025 0.000000 0.000000 0.000000 
12.675247 61.271820 -33.305447 0.000000 0.000000 0.000000 45.453697 -35.971208 17.455761 -93.853008 -13.147775 3.156712 109.509707 -6.320061 1.765431 28.333699 -3.285541 -14.766917 0.000000 0.000000 0.000000 45.453697 -35.971208 17.455761 -92.223892 -6.158755 -18.085306 107.202285 -6.068382 6.058441 -35.790704 -13.373837 9.266647 0.000000 0.000000 0.000000 45.453697 -35.971208 17.455761 -0.000002 -0.000002 0.000003 31.849179 10.344158 -0.966744 7.061766 2.031539 0.302377 0.000000 0.000000 0.000000 7.042413 2.096747 0.316210 -2.523397 -0.844989 -0.256084 0.000000 0.000000 0.000000 7.042413 2.096747 0.316210 6.372473 -26.659473 -8.259885 -25.166604 -4.279519 -34.823310 0.000005 -44.263570 -0.000009 0.000000 0.000000 0.000000 7.042413 2.096747 0.316210 0.870758 26.853941 8.332477 -37.384685 45.161983 14.142853 -0.000003 30.620804 0.000011 0.000000 0.000000 0.000000 
12.658293 61.818275 -32.501919 0.000000 0.000000 0.000000 45.083084 -35.726882 17.396500 -95.250881 -14.538705 4.326660 109.275029 -6.299560 2.054774 28.766954 -2.874158 -15.145656 0.000000 0.000000 0.000000 45.083084 -35.726882 17.396500 -90.221956 -5.873451 -18.229987 105.955960 -5.452284 5.964303 -36.343771 -14.193125 9.664257 0.000000 0.000000 0.000000 45.083084 -35.726882 17.396500 0.000003 -0.000000 -0.000001 31.911815 10.129398 -1.043520 7.073545 1.986075 0.274283 0.000000 0.000000 0.000000 7.054840 2.050719 0.287682 -2.521565 -0.768535 -0.309683 0.000000 0.000000 0.000000 7.054840 2.050719 0.287682 6.400829 -26.926901 -8.002631 -25.440597 -4.122253 -33.844697 -0.000001 -44.237875 -0.000005 0.000000 0.000000 0.000000 7.054840 2.050719 0.287682 1.114123 26.227851 7.102850 -38.539496 45.299720 15.508737 -0.000002 31.555563 -0.000004 0.000000 0.000000 0.000000 
12.615379 62.464226 -31.681320 0.000000 0.000000 0.000000 44.664776 -35.362857 17.428594 -96.395539 -15.692686 5.520767 108.803964 -6.122659 2.305997 28.661267 -2.755119 -15.363547 0.000000 0.000000 0.000000 44.664776 -35.362857 17.428594 -88.111448 -5.562682 -18.494824 104.561938 -4.879617 5.881966 -36.928009 -14.965510 10.015298 0.000000 0.000000 0.000000 44.664776 -35.362857 17.428594 -0.000000 0.000002 0.000001 32.030859 9.803532 -1.146086 7.098272 1.925003 0.239132 0.000000 0.000000 0.000000 7.080361 1.989199 0.251947 -2.546006 -0.703614 -0.358134 0.000000 0.000000 0.000000 7.080361 1.989199 0.251947 6.388997 -27.076624 -7.733062 -25.415848 -3.798328 -33.137527 0.000001 -47.733716 0.000005 0.000000 0.000000 0.000000 7.080361 1.989199 0.251947 1.352229 25.295336 5.772268 -40.148555 45.720989 17.348745 -0.000011 32.123281 0.000038 0.000000 0.000000 0.000000 
12.530228 63.209747 -30.871971 0.000000 0.000000 0.000000 44.294859 -34.964821 17.637041 -97.345038 -16.506462 6.762277 108.165136 -5.926910 2.510205 27.934968 -2.751705 -15.587506 0.000000 0.000000 0.000000 44.294859 -34.964821 17.637041 -86.026110 -5.278147 -18.765870 103.006827 -4.437994 5.800635 -37.520852 -15.604935 10.189849 0.000000 0.000000 0.000000 44.294859 -34.964821 17.637041 -0.000001 0.000000 0.000000 32.148403 9.383666 -1.356666 7.122097 1.856556 0.180068 0.000000 0.000000 0.000000 7.105024 1.920577 0.192174 -2.579349 -0.653126 -0.383552 0.000000 0.000000 0.000000 7.105024 1.920577 0.192174 6.331477 -27.109446 -7.424407 -25.780228 -3.936423 -32.172319 0.000002 -48.299789 0.000006 0.000000 0.000000 0.000000 7.105024 1.920577 0.192174 1.543946 24.220629 4.532001 -41.870921 46.375393 19.274445 0.000001 32.369192 0.000011 0.000000 0.000000 0.000000 
